<?xml version="1.0" encoding="iso-8859-1"?>
<!-- Generator: Adobe Illustrator 19.0.0, SVG Export Plug-In . SVG Version: 6.00 Build 0)  -->
<svg version="1.1" id="Layer_1" xmlns="http://www.w3.org/2000/svg" xmlns:xlink="http://www.w3.org/1999/xlink" x="0px" y="0px"
	 viewBox="0 0 512 512" style="enable-background:new 0 0 512 512;" xml:space="preserve">
<g>
	<g>
		<path d="M373.821,182.711c-29.132,0-52.837,19.628-52.837,43.762s23.706,43.772,52.837,43.772s52.837-19.639,52.837-43.772
			S402.953,182.711,373.821,182.711z M373.821,251.698c-18.911,0-34.301-11.312-34.301-25.225s15.39-25.225,34.301-25.225
			c18.911,0,34.301,11.312,34.301,25.225S392.732,251.698,373.821,251.698z"/>
	</g>
</g>
<g>
	<g>
		<circle cx="357.275" cy="226.472" r="9.206"/>
	</g>
</g>
<g>
	<g>
		<circle cx="390.356" cy="226.472" r="9.206"/>
	</g>
</g>
<g>
	<g>
		<circle cx="330.862" cy="159.432" r="10.229"/>
	</g>
</g>
<g>
	<g>
		<circle cx="416.78" cy="159.432" r="10.229"/>
	</g>
</g>
<g>
	<g>
		<path d="M509.666,68.785c-0.953-3.564-3.735-6.346-7.299-7.299c-23.866-6.368-49.53,0.514-66.975,17.958
			c-5.769,5.779-10.456,12.511-13.87,19.863c-15.347-5.544-31.336-8.358-47.69-8.391h-0.011c-0.011,0-0.021,0-0.021,0
			c-16.342,0.032-32.342,2.857-47.679,8.391c-3.414-7.352-8.102-14.095-13.87-19.863C294.806,62,269.131,55.118,245.265,61.486
			c-3.553,0.953-6.336,3.735-7.288,7.299c-5.715,21.426-0.76,44.286,12.939,61.367H147.767c-29.121,0-56.498,11.334-77.089,31.936
			c-6.732,6.721-12.458,14.159-17.134,22.154c-4.024,5.897-10.627,9.418-17.787,9.418c-8.359,0-15.165-6.796-15.165-15.165
			c0-5.544,4.516-10.071,10.071-10.071c0.717,0,1.434,0.139,2.119,0.385c5.33,1.98,11.259-0.728,13.249-6.058
			c1.98-5.33-0.728-11.259-6.057-13.249c-2.986-1.113-6.122-1.68-9.311-1.68C13.742,147.821,0,161.585,0,178.494
			c0,19.724,16.043,35.767,35.756,35.767c2.001,0,3.981-0.161,5.929-0.428c-1.948,8.209-2.954,16.696-2.954,25.354
			c0,35.607,17.07,68.42,45.913,88.883v114.472c0,5.694,4.613,10.306,10.296,10.306h49.327c5.694,0,10.306-4.613,10.306-10.306
			v-11.163h34.098c5.683,0,10.296-4.613,10.296-10.306v-72.872h72.016v94.341c0,5.694,4.613,10.306,10.306,10.306h49.327
			c5.683,0,10.296-4.613,10.296-10.306v-11.163h34.098c5.694,0,10.296-4.613,10.296-10.306v-95.079
			c3.253-2.622,6.389-5.426,9.386-8.423c4.591-4.591,8.808-9.579,12.575-14.855c38.796-13.795,66.654-50.879,66.654-94.352v-59.719
			c6.561-3.296,12.522-7.609,17.787-12.886C509.152,118.315,516.034,92.651,509.666,68.785z M133.972,432.246h-28.725V420.11h28.725
			V432.246z M178.365,410.777h-23.791v-12.136h23.791V410.777z M178.365,378.039h-23.791v-29.838h23.791V378.039z M320.31,432.246
			h-28.725V420.11h28.725V432.246z M364.714,410.777h-23.802v-12.136h23.802V410.777z M364.714,378.039h-23.802v-29.752
			c8.284-2.119,16.246-5.126,23.802-8.958V378.039z M330.948,329.739c-0.107,0-0.225-0.021-0.332-0.021
			c-5.694,0-10.306,4.613-10.306,10.306v59.483h-28.725v-61.603c0-5.683-4.602-10.296-10.296-10.296H144.267
			c-2.847,0-5.415,1.156-7.278,3.018c-1.862,1.862-3.018,4.441-3.018,7.278v61.603h-28.725V322.59c0-3.596-1.852-6.764-4.655-8.605
			c-0.043-0.032-0.086-0.064-0.128-0.096c-25.75-16.332-41.129-44.265-41.129-74.702c0-23.631,9.193-45.838,25.9-62.534
			c16.706-16.706,38.914-25.9,62.534-25.9h125.956v57.611c0,55.192,44.907,100.099,100.099,100.099h0.364
			C361.353,322.601,330.948,329.739,330.948,329.739z M477.141,121.194c-4.923,4.923-10.702,8.669-17.167,11.12
			c-4.003,1.509-6.657,5.351-6.657,9.632v66.419c0,43.837-35.66,79.508-79.497,79.508s-79.508-35.671-79.508-79.508v-66.419
			c0-4.281-2.643-8.123-6.646-9.632c-6.464-2.451-12.243-6.197-17.167-11.12c-10.799-10.788-15.839-26.06-13.838-41.011
			c14.951-2.001,30.223,3.039,41.022,13.827c5.972,5.972,10.306,13.421,12.522,21.522c1.509,5.49,7.171,8.722,12.661,7.213
			c0.514-0.15,1.006-0.332,1.488-0.546l0.011,0.021c15.732-7.063,32.375-10.67,49.455-10.702
			c17.081,0.032,33.723,3.639,49.466,10.702l0.021-0.011c0.471,0.203,0.953,0.396,1.466,0.535c5.48,1.498,11.152-1.723,12.65-7.213
			c2.226-8.102,6.56-15.54,12.532-21.522c10.799-10.788,26.06-15.829,41.022-13.827C492.981,95.134,487.94,110.406,477.141,121.194z
			"/>
	</g>
</g>
<g>
	<g>
		<path d="M227.084,177.759h-91.628c-5.688,0-10.3,4.612-10.3,10.3c0,5.688,4.612,10.3,10.3,10.3h91.628
			c5.688,0,10.3-4.612,10.3-10.3C237.384,182.371,232.772,177.759,227.084,177.759z"/>
	</g>
</g>
<g>
</g>
<g>
</g>
<g>
</g>
<g>
</g>
<g>
</g>
<g>
</g>
<g>
</g>
<g>
</g>
<g>
</g>
<g>
</g>
<g>
</g>
<g>
</g>
<g>
</g>
<g>
</g>
<g>
</g>
</svg>
