<?xml version="1.0" encoding="utf-8"?>
<!-- Generator: Adobe Illustrator 23.1.0, SVG Export Plug-In . SVG Version: 6.00 Build 0)  -->
<svg version="1.1" id="Слой_1" xmlns="http://www.w3.org/2000/svg" xmlns:xlink="http://www.w3.org/1999/xlink" x="0px" y="0px"
	 viewBox="0 0 614.7 214.8" style="enable-background:new 0 0 614.7 214.8;" xml:space="preserve">
<style type="text/css">
	.st0{fill-rule:evenodd;clip-rule:evenodd;}
</style>
<title>Silhouette Tree Branch</title>
<g>
	<title>Layer 1</title>
	<path id="path3196" class="st0" d="M445.1,92.1c-3-1-6-1.7-7.9-2.1c-1.1-0.2-1.7-1.4-1.2-2.4c1.3-2.8,4.4-8.1,11-13.7
		c9.6-8,29.9-2.7,42.3-5.8c9.9-2.5,20.4-9.9,24.2-12.7c0.8-0.6,0.9-1.7,0.3-2.5l-1.8-2.2c-0.6-0.7-1.6-0.8-2.3-0.3
		c-3.4,2.4-12.8,8.6-20.8,9c-10,0.5-33.7,2.9-47.4,3.6c-13.7,0.7-21.8,16.2-38,18.2c-16.2,2-47,13.6-63.7,3.1
		c-16.8-10.5-15.7-14.4-37-13.3c-21.2,1-50.1-0.1-64.2-7c-14.1-6.9-33.8,0.4-52.7-2.5c-18.9-2.9-18.2,12.2-35.9,9.3
		c-17.7-2.9-34.4-10.9-46.9-10.3c-11.4,0.6-89.3-6.5-102.5-7.8c-1-0.1-1.9,0.7-1.9,1.8l1,45.3c0,1,0.9,1.8,1.9,1.7
		c12.7-1.6,85.5-9.8,99.8,3.3c15.7,14.4,23,9,39.3,9.4c16.3,0.5,30.3,4.8,39.9-4.5c9.6-9.3,23.1-13.7,35.7-13.1
		c12.6,0.7,25.4,6.3,35.4,5.9c10-0.5,16-5.8,35-1.7c19,4.1,23.2,12.8,37.1,15.9c13.9,3.1,39.9-4.5,56.1-5.2
		c16.2-0.8,21.2-2.3,37.6-0.6c16.4,1.7,19.2,7.9,38.2,13.3c19.1,5.4,36.2,23.5,46.3,25.5c10.1,2,47.9,5.2,53.8-1.3
		c4.7-5.2,0.9-7.7-0.9-8.5c-0.5-0.2-1-0.2-1.5,0.1c-2,1-8.2,3.9-15.4,4.2c-8.7,0.4-26.2,1.3-31.6-4.8c-5.3-6-21-19.2-26.2-24
		c-5.2-4.8-22-14.1-27.2-18.9C451.1,94.5,448.1,93.1,445.1,92.1"/>
	<g id="g3187">
	</g>
	<path id="path3214" class="st0" d="M447.9,63.8c-0.6,0.1-1.2-0.2-1.6-0.7c-2.9-4.1-13.3-20.6-6.4-33.8
		c6.1-11.5,13.2-23.6,16.2-28.7c0.7-1.2,2.4-1.1,3,0.1c2.7,5.2,7.7,17.3,2.9,29.5c-3.2,8.4-5.5,16.3-6.9,21.9c-0.5,1.8,1.9,3,3,1.5
		c5.5-6.9,15-16.8,25.2-18.1c7.9-1,19.3-0.6,25.5-0.3c1.6,0.1,2.2,2.1,1,3.1c-4.9,3.8-14.2,10.7-23.8,16.8
		C473.3,63.1,452.4,63.3,447.9,63.8z"/>
	<path id="path3216" class="st0" d="M434.1,113.8c0,0,20.4,4.5,22.1,23.2c1.3,13.9,1.2,24.9,1,29.6c0,1.3-1.3,2-2.5,1.5
		c-3.6-1.7-10.8-5.9-17.1-14.1c-4.5-5.9-7.2-11.6-8.7-15.8c-0.6-1.6-2.9-1.5-3.3,0.2c-1.5,6-4.4,14.7-9.2,20.1
		c-5.9,6.6-13.6,10.2-17.3,11.7c-1.1,0.4-2.3-0.3-2.3-1.5c-0.5-5.6-1-20.6,4.6-29.8c6.2-10.2,19.3-23.2,22.4-26.1
		c0.4-0.4,1-0.6,1.5-0.5L434.1,113.8z"/>
	<path id="path3218" class="st0" d="M551.4,142c0-0.5,0.3-0.9,0.7-1.2c3.1-2.4,17.8-13,32.7-14.9c13.3-1.7,25.7,5.4,30.4,8.6
		c1,0.7,1,2.2,0,2.9c-3.6,2.6-11.9,7.7-21.7,9.2c-5.4,0.8-10.8,0.6-15.3,0c-1.8-0.2-2.7,2.2-1.1,3.2c6.5,4,14.8,9.8,21.2,16.7
		c9.6,10.5,12.6,24,13.4,29.2c0.2,1.1-0.7,2.1-1.8,2c-6-0.3-23.6-1.8-30.9-8.8c-4.8-4.6-9.4-13-12.6-19.8c-0.8-1.7-3.3-1.1-3.3,0.8
		c0.2,8.9-1.4,21.1-10,28.5c-12.2,10.4-30.9,15.3-37.2,16.7c-1.1,0.2-2.1-0.6-2.1-1.7c0.1-6.2,1.2-24.2,8.7-34.7
		c7.8-11,22-16.5,25.9-17.8c0.6-0.2,1.1-0.8,1.2-1.5L551.4,142z"/>
</g>
</svg>
