<?xml version="1.0" encoding="iso-8859-1"?>
<!-- Generator: Adobe Illustrator 19.0.0, SVG Export Plug-In . SVG Version: 6.00 Build 0)  -->
<svg version="1.1" id="Layer_1" xmlns="http://www.w3.org/2000/svg" xmlns:xlink="http://www.w3.org/1999/xlink" x="0px" y="0px"
	 viewBox="0 0 512 512" style="enable-background:new 0 0 512 512;" xml:space="preserve">
<g>
	<g>
		<path d="M334.598,330.021c-1.589-8.457-6.265-16.914-13.163-23.812c-3.449-3.449-7.29-6.345-11.323-8.578
			c-4.032-2.222-8.256-3.791-12.489-4.585c-9.583-1.81-18.472,0.553-24.405,6.486c-5.933,5.933-8.296,14.822-6.486,24.405
			c1.589,8.457,6.265,16.914,13.163,23.812c9.06,9.05,20.112,13.797,30.057,13.797c6.959,0,13.364-2.323,18.161-7.12
			C334.044,348.493,336.408,339.604,334.598,330.021z M315.311,341.625c-2.323,2.323-6.536,1.83-8.246,1.498
			c-4.847-0.915-10.086-3.892-14.37-8.175c-4.284-4.284-7.27-9.523-8.175-14.37c-0.322-1.709-0.825-5.923,1.498-8.246
			c1.408-1.418,3.52-1.78,5.35-1.78c1.177,0,2.232,0.151,2.896,0.272c4.847,0.915,10.086,3.902,14.37,8.185
			c4.284,4.284,7.27,9.523,8.175,14.37C317.131,335.089,317.633,339.302,315.311,341.625z"/>
	</g>
</g>
<g>
	<g>
		<path d="M343.316,52.753c-5.45,0-9.865,4.414-9.865,9.865c0,5.45,4.414,9.865,9.865,9.865c5.44,0,9.855-4.414,9.855-9.865
			C353.171,57.167,348.756,52.753,343.316,52.753z"/>
	</g>
</g>
<g>
	<g>
		<path d="M395.405,27.513h-45.704V10.056C349.701,4.505,345.196,0,339.645,0c-5.551,0-10.056,4.505-10.056,10.056v17.457h-3.781
			V10.056C325.809,4.505,321.314,0,315.753,0c-5.551,0-10.056,4.505-10.056,10.056v19.116c-2.082,0.694-4.093,1.579-5.973,2.665
			c-1.689-2.936-3.892-5.802-6.597-8.497c-5.41-5.42-11.574-8.96-17.809-10.227c-7.401-1.518-14.43,0.402-19.277,5.259
			c-4.857,4.857-6.788,11.886-5.269,19.287c1.267,6.235,4.807,12.389,10.227,17.809c6.667,6.667,14.36,10.307,21.479,10.719
			l-15.154,189.903h-69.083c-10.77,0-21.117,2.353-30.761,6.999c-0.221,0.101-9.784,4.998-17.527,12.007h-4.384
			c-29.524,0-53.849,22.646-56.524,51.476c-2.021,1.217-3.791,2.856-5.179,4.847c-2.594,3.731-3.57,8.256-2.765,12.721l1.579,8.749
			c1.146,6.285,6.144,11.262,12.419,12.399c0.925,0.161,1.84,0.241,2.745,0.241c7.311,0,13.817-5.229,15.154-12.67l1.579-8.718
			c0-0.01,0-0.02,0-0.02c0.352-2.001,0.352-4.022,0-6.023c-0.815-4.465-3.308-8.356-7.039-10.951
			c-0.111-0.07-0.221-0.131-0.332-0.201c1.991-15.506,13.183-28.176,27.925-32.309c-5.088,9.905-7.793,20.936-7.793,32.349
			c0,1.699,7.552,172.738,7.552,172.738c0.141,6.235,5.259,11.273,11.524,11.273h22.374c2.504,0,4.817-0.815,6.707-2.182
			c2.212,1.971,5.118,3.188,8.306,3.188h22.374c6.818,0,12.379-5.46,12.54-12.238l4.495-101.885h41.711l4.455,101.845
			c0.141,6.235,5.259,11.273,11.524,11.273h22.374c2.504,0,4.817-0.815,6.707-2.182c2.212,1.971,5.118,3.188,8.306,3.188h22.374
			c6.808,0,12.369-5.46,12.529-12.238c0,0,5.923-134.033,5.863-134.536c7.351-11.403,11.212-24.526,11.212-38.242l-9.503-212.197
			c9.925-1.569,18.653-7.301,24.053-15.747h10.589c19.729,0,35.768-16.049,35.768-35.758
			C431.173,43.552,415.134,27.513,395.405,27.513z M273.79,42.667c-2.816-2.816-4.746-5.963-5.289-8.628
			c-0.161-0.784-0.332-2.202,0.332-2.866c0.372-0.362,0.965-0.473,1.549-0.473c0.483,0,4.173,0,9.945,5.43
			c5.571,5.239,6.104,10.357,4.968,11.504C284.148,48.771,279.2,48.067,273.79,42.667z M288.371,219.88
			c4.766,3.711,7.763,9.483,7.763,15.948c0,7.612-4.223,14.249-10.448,17.698L288.371,219.88z M177.778,278.304
			c6.466-2.725,13.344-4.113,20.464-4.113h11.765c1.961,2.584,3.007,5.631,3.007,8.809c0,8.799-8.085,15.959-18.02,15.959
			c-9.935,0-18.03-7.16-18.03-15.959C176.963,281.381,177.245,279.812,177.778,278.304z M198.935,491.888h-7.813l-3.359-94.011
			h15.315L198.935,491.888z M333.411,491.888h-7.783l-3.248-97.863c5.561-1.901,10.84-4.485,15.737-7.673L333.411,491.888z
			 M395.405,80.939h-16.049c-3.66,0-6.969,2.212-8.366,5.601c-2.645,6.426-8.849,10.589-15.798,10.589
			c-0.885,0-1.77-0.07-2.645-0.211c-2.715-0.432-5.48,0.392-7.512,2.242c-2.041,1.85-3.117,4.525-2.946,7.27l0.875,13.726
			c-15.204,5.4-25.863,19.81-25.863,36.422c0,18.432,13.103,33.898,30.57,37.759l4.495,132.646c0,11.413-3.58,22.273-10.357,31.404
			c-7.954,10.719-19.518,17.97-32.561,20.433c-0.03,0.01-0.07,0.02-0.101,0.02l-0.282,0.06c-4.083,0.815-7.089,4.314-7.27,8.477
			l-4.616,105.515h-9.784l-4.575-104.469c-0.211-4.837-4.193-8.648-9.04-8.648h-97.481c-4.837,0-8.829,3.811-9.04,8.648
			l-4.394,100.548h-10.126c0,0-7.099-160.732-7.099-161.989c0-13.545,5.108-26.376,14.39-36.211
			c3.741,15.043,18.09,26.286,35.165,26.286c19.921,0,36.12-15.285,36.12-34.059c0-3.027-0.412-5.983-1.207-8.809h45.774
			c0.191,0,0.362-0.02,0.543-0.03c20.986-0.181,38.011-17.306,38.011-38.333c0-16.14-9.835-30.057-24.285-35.688
			c0,0,11.232-140.298,11.252-140.61c0.483-7.803,6.989-13.917,14.802-13.917h79.4c9.744,0,17.668,7.924,17.668,17.668
			C413.073,73.015,405.149,80.939,395.405,80.939z M346.433,174.81c-6.677-3.459-11.232-10.337-11.232-18.231
			c0-6.949,3.53-13.173,9-16.914L346.433,174.81z"/>
	</g>
</g>
<g>
	<g>
		<path d="M334.598,330.021c-1.589-8.457-6.265-16.914-13.163-23.812c-3.449-3.449-7.29-6.345-11.323-8.578
			c-4.032-2.222-8.256-3.791-12.489-4.585c-9.583-1.81-18.472,0.553-24.405,6.486c-5.933,5.933-8.296,14.822-6.486,24.405
			c1.589,8.457,6.265,16.914,13.163,23.812c9.06,9.05,20.112,13.797,30.057,13.797c6.959,0,13.364-2.323,18.161-7.12
			C334.044,348.493,336.408,339.604,334.598,330.021z M315.311,341.625c-2.323,2.323-6.536,1.83-8.246,1.498
			c-4.847-0.915-10.086-3.892-14.37-8.175c-4.284-4.284-7.27-9.523-8.175-14.37c-0.322-1.709-0.825-5.923,1.498-8.246
			c1.408-1.418,3.52-1.78,5.35-1.78c1.177,0,2.232,0.151,2.896,0.272c4.847,0.915,10.086,3.902,14.37,8.185
			c4.284,4.284,7.27,9.523,8.175,14.37C317.131,335.089,317.633,339.302,315.311,341.625z"/>
	</g>
</g>
<g id="SVGCleanerId_1">
	<g>
		<path d="M343.316,52.753c-5.45,0-9.865,4.414-9.865,9.865c0,5.45,4.414,9.865,9.865,9.865c5.44,0,9.855-4.414,9.855-9.865
			C353.171,57.167,348.756,52.753,343.316,52.753z"/>
	</g>
</g>
<g>
	<g>
		<path d="M343.316,52.753c-5.45,0-9.865,4.414-9.865,9.865c0,5.45,4.414,9.865,9.865,9.865c5.44,0,9.855-4.414,9.855-9.865
			C353.171,57.167,348.756,52.753,343.316,52.753z"/>
	</g>
</g>
<g>
	<g>
		<path d="M334.598,330.021c-1.589-8.457-6.265-16.914-13.163-23.812c-3.449-3.449-7.29-6.345-11.323-8.578
			c-4.032-2.222-8.256-3.791-12.489-4.585c-9.583-1.81-18.472,0.553-24.405,6.486c-5.933,5.933-8.296,14.822-6.486,24.405
			c1.589,8.457,6.265,16.914,13.163,23.812c9.06,9.05,20.112,13.797,30.057,13.797c6.959,0,13.364-2.323,18.161-7.12
			C334.044,348.493,336.408,339.604,334.598,330.021z M315.311,341.625c-2.323,2.323-6.536,1.83-8.246,1.498
			c-4.847-0.915-10.086-3.892-14.37-8.175c-4.284-4.284-7.27-9.523-8.175-14.37c-0.322-1.709-0.825-5.923,1.498-8.246
			c1.408-1.418,3.52-1.78,5.35-1.78c1.177,0,2.232,0.151,2.896,0.272c4.847,0.915,10.086,3.902,14.37,8.185
			c4.284,4.284,7.27,9.523,8.175,14.37C317.131,335.089,317.633,339.302,315.311,341.625z"/>
	</g>
</g>
<g>
</g>
<g>
</g>
<g>
</g>
<g>
</g>
<g>
</g>
<g>
</g>
<g>
</g>
<g>
</g>
<g>
</g>
<g>
</g>
<g>
</g>
<g>
</g>
<g>
</g>
<g>
</g>
<g>
</g>
</svg>
