<?xml version="1.0" encoding="utf-8"?>
<!-- Generator: Adobe Illustrator 23.1.0, SVG Export Plug-In . SVG Version: 6.00 Build 0)  -->
<svg version="1.1" id="Слой_1" xmlns="http://www.w3.org/2000/svg" xmlns:xlink="http://www.w3.org/1999/xlink" x="0px" y="0px"
	 viewBox="0 0 300 300" style="enable-background:new 0 0 300 300;" xml:space="preserve">
<g transform="translate(0.000000,300.000000) scale(0.050000,-0.050000)">
	<path d="M4044,440c-186,171-270,293-295,425l-13,75h508.1c-12.3,47.2-20,96.1-22.3,146.3c-6.8,34.5-11.2,69.7-12.8,105.6
		c-9,201.2,96,384.9,251.3,503.4c11.1,10.1,22.5,19.9,34.3,29.3c3.4,4.6,8.6,9.7,15.4,15.4c346,287,461,1244,225,1877l-39,107
		l51,103c208,416,127,909-208,1262c-135,141-136,144-120,222c10,43,27,178,39,299c13,121,27,258,32,305s7,85,5,85c-3,0-50-22-105-48
		c-113-53-289-221-427-409c-84-114-98-125-153-117c-171,27-523-80-714-217l-98-71l-97,71c-186,137-427,215-661,215h-115l-91,123
		c-228,310-551,543-524,378c5-30,19-167,31-305c12-137,30-281,40-318c17-66,13-74-119-213c-336-354-415-830-210-1265l50-106l-38-104
		c-235-632-120-1587,226-1874c8.6-7.1,14.5-13.2,17.6-18.7c161.1-117.2,264.6-309.3,274.1-521.7c4.1-91.7-15.6-179.7-52.8-259.6
		H2264l-13-75c-25-132-109-254-295-425c-213-197-351-454-221-414c553,173,689,197,799,139C2832,7,2821,10,3000,10s168-3,466,155
		c110,58,246,34,799-139C4395-14,4257,243,4044,440z M2751,1189c-80-79-192-69-270,26c-40,49-61,63-61,41c0-104-198-150-294-68
		l-56,49v260c0,246,3,262,47,310c75,79,175,82,258,7c25-23,45-55,45-72c0-19,25-1,61,43c78,95,190,105,270,26c47-47,49-60,49-311
		S2798,1236,2751,1189z M3000,3200c-6,0-68,110-138,245c-71,135-130,247-132,250s-61-24-132-60c-297-151-682-79-905,167
		c-500,553,23,1441,737,1251c250-67,549-348,550-518c0-19,9-35,20-35s20,16,20,35c1,170,300,451,550,518c734,196,1249-740,706-1280
		c-233-231-581-286-874-138c-71,36-130,63-132,60s-61-115-132-250C3068,3310,3006,3200,3000,3200z M3580,1251c0,16-9,29-20,29
		s-20-11-20-24c0-108-203-155-291-67c-54,55-75,504-27,594c57,108,210,108,299,0c36-44,59-60,59-41c0,114,205,162,298,70
		c51-52,52-59,52-314v-261l-56-49C3781,1108,3580,1151,3580,1251z"/>
	<path d="M2090,4647c-352-186-235-697,160-697c391,0,514,514,166,692C2325,4688,2173,4690,2090,4647z"/>
	<path d="M3590,4647c-352-186-235-697,160-697c391,0,514,514,166,692C3825,4688,3673,4690,3590,4647z"/>
</g>
</svg>
