<svg xmlns="http://www.w3.org/2000/svg" viewBox="0 0 64 64" xmlns:xlink="http://www.w3.org/1999/xlink"><g fill="#42ade2"><path d="M51.4 7.4L48.8 10a26.6 26.6 0 010 43.9l2.6 2.6a30.4 30.4 0 000-49.1z"/><path d="M52.5 32c0 6.9-3.7 13-9.3 16.3l2.7 2.7a22.5 22.5 0 00-.1-38l-2.7 2.7A19 19 0 0152.5 32"/><path d="M44.8 32c0 4.8-3.1 9-7.4 10.5l2.8 2.8a14.9 14.9 0 000-26.7l-2.8 2.8c4.3 1.6 7.4 5.7 7.4 10.6"/></g><path d="M11.1 45H3.8C1.7 45 0 43.4 0 41.5v-19c0-2 1.7-3.5 3.8-3.5h7.3v26" fill="#8b979e" id="a"/><use xlink:href="#a"/><path d="M29.8 2.2L11.1 19v26s10.3 7.9 18.7 16.8V2.2z" fill="#b0bdc6"/><g fill="#333"><path d="M33 25.5v13.1c3.9 0 7-2.9 7-6.5 0-3.7-3.1-6.6-7-6.6M33 62.5c0 .8-.7 1.5-1.6 1.5-.9 0-1.6-.7-1.6-1.5v-61c0-.8.7-1.5 1.6-1.5.9 0 1.6.7 1.6 1.5v61"/></g><path d="M11.1 40.2H3.8c-2.1 0-3.8-1-3.8-2.2V26c0-1.2 1.7-2.2 3.8-2.2h7.3v16.4z" fill="#8b979e"/><path d="M11.1 40.2H3.8c-2.1 0-3.8-1-3.8-2.2V26c0-1.2 1.7-2.2 3.8-2.2h7.3v16.4z" fill="#b0bdc6"/><path fill="#dfe9ef" d="M29.8 13.3L11.1 23.8v16.4l18.7 10.5z"/><path fill="#8b979e" d="M29.8 13.3H33v37.5h-3.2z"/><path fill="#333" d="M3.8 19h7.3v26H3.8z"/></svg>